<svg width="24" height="24" viewBox="0 0 24 24" fill="none" xmlns="http://www.w3.org/2000/svg">
<path d="M7.72722 9.41695C7.61234 9.41771 7.49359 9.41849 7.36892 9.41849C7.41263 9.30618 7.43761 9.25332 7.46258 9.20047C8.53664 7.19863 10.8846 6.05567 13.0077 6.55778C15.1246 7.05328 16.4797 8.43409 17.0916 10.6341C17.2665 11.2618 17.7411 11.5657 18.2718 11.4005C18.7714 11.2419 19.0337 10.7068 18.8588 10.099C18.0096 7.07971 16.1362 5.15716 13.2075 4.62862C10.1977 4.08687 7.7873 5.26947 6.03883 7.93198C6.01433 7.96901 5.98787 8.00397 5.95065 8.05314C5.92146 8.09169 5.88566 8.13898 5.83901 8.20285C5.83901 8.03285 5.8401 7.87094 5.84116 7.71473C5.84367 7.34278 5.84596 7.00313 5.83276 6.66349C5.80779 6.10192 5.39565 5.71212 4.89609 5.72533C4.40902 5.73855 4.01561 6.14156 4.00937 6.68331C3.99688 7.91876 3.99688 9.14761 4.00937 10.3831C4.01561 10.9446 4.39028 11.341 4.92107 11.3477C6.06381 11.3609 7.2128 11.3609 8.35555 11.3477C8.90507 11.3477 9.28598 10.9182 9.27974 10.3699C9.27349 9.83471 8.88633 9.4317 8.35555 9.41849C8.1508 9.41416 7.94605 9.41551 7.72722 9.41695Z" fill="white"/>
<path d="M16.0488 18.1592C16.8793 17.5448 17.5537 16.7784 18.1594 15.8931C18.1594 16.048 18.158 16.2029 18.1566 16.357C18.1539 16.6631 18.1511 16.9663 18.1594 17.2607C18.1782 17.8685 18.5778 18.2847 19.1024 18.2649C19.6206 18.2517 19.9953 17.8289 19.9953 17.2409C20.0016 16.0516 20.0016 14.8624 19.9953 13.6732C19.9953 13.039 19.6269 12.6492 19.0212 12.6426C17.9159 12.636 16.8169 12.636 15.7116 12.6426C15.1183 12.6492 14.7187 13.0522 14.7249 13.627C14.7312 14.1819 15.1308 14.5717 15.7116 14.5783C15.9042 14.5827 16.0969 14.5813 16.302 14.5799C16.4092 14.5791 16.5199 14.5783 16.6358 14.5783C16.6227 14.6076 16.6109 14.6343 16.6001 14.6591C16.5643 14.7405 16.5382 14.8001 16.5046 14.8558C15.1433 17.2937 12.1272 18.2517 9.72309 16.9964C8.25563 16.23 7.33768 14.988 6.89432 13.3297C6.73196 12.7219 6.24489 12.4312 5.7266 12.5963C5.23953 12.7549 4.98974 13.2636 5.12712 13.8384C6.31358 18.8991 12.0148 21.1454 16.0488 18.1592Z" fill="white"/>
</svg>
