<svg width="26.000000" height="26.000000" viewBox="0 0 26 26" fill="none" xmlns="http://www.w3.org/2000/svg" xmlns:xlink="http://www.w3.org/1999/xlink">
	<desc>
			Created with Pixso.
	</desc>
	<defs/>
	<rect id="Frame 103" rx="0.000000" width="25.000000" height="25.000000" transform="translate(0.500000 0.500000)" fill="#FFFFFF" fill-opacity="0"/>
	<path id="Vector" d="M17.92 23C16.54 22.84 15.33 22.47 14.21 21.9C9.27 19.38 5.61 15.66 3.54 10.46C3.27 9.8 3.16 9.08 3.02 8.37C2.97 8.13 3.01 7.83 3.12 7.62C4.04 5.98 5.2 4.54 6.67 3.36C7.36 2.81 8.06 2.88 8.54 3.61C9.4 4.92 10.25 6.26 11 7.65C11.54 8.67 11.4 9.04 10.54 9.82C10.45 9.9 10.35 9.99 10.25 10.07C9.5 10.7 9.5 10.7 9.9 11.58C10.95 13.8 12.64 15.38 14.93 16.3C15.2 16.41 15.38 16.39 15.56 16.14C15.81 15.81 16.1 15.51 16.38 15.2C16.83 14.69 17.38 14.54 18.02 14.83C18.62 15.1 19.21 15.38 19.77 15.71C20.6 16.21 21.4 16.76 22.21 17.29C22.37 17.41 22.54 17.55 22.66 17.71C23.09 18.22 23.13 18.71 22.64 19.24C21.85 20.09 21 20.89 20.12 21.66C19.62 22.1 19.02 22.44 18.44 22.8C18.26 22.91 18.02 22.95 17.92 23Z" fill="#2770F1" fill-opacity="1.000000" fill-rule="nonzero"/>
</svg>
