<svg width="132.000000" height="132.000000" viewBox="0 0 132 132" fill="none" xmlns="http://www.w3.org/2000/svg" xmlns:xlink="http://www.w3.org/1999/xlink">
	<desc>
			Created with Pixso.
	</desc>
	<defs>
		<filter id="filter_1510_516_dd" x="0.000000" y="0.000000" width="132.000000" height="132.000000" filterUnits="userSpaceOnUse" color-interpolation-filters="sRGB">
			<feFlood flood-opacity="0" result="BackgroundImageFix"/>
			<feColorMatrix in="SourceAlpha" type="matrix" values="0 0 0 0 0 0 0 0 0 0 0 0 0 0 0 0 0 0 127 0" result="hardAlpha"/>
			<feOffset dx="0" dy="4"/>
			<feGaussianBlur stdDeviation="8"/>
			<feComposite in2="hardAlpha" operator="out" k2="-1" k3="1"/>
			<feColorMatrix type="matrix" values="0 0 0 0 0.10588 0 0 0 0 0.19216 0 0 0 0 0.37255 0 0 0 0.15 0"/>
			<feBlend mode="normal" in2="BackgroundImageFix" result="effect_dropShadow_1"/>
			<feBlend mode="normal" in="SourceGraphic" in2="effect_dropShadow_1" result="shape"/>
		</filter>
		<clipPath id="clip1510_516">
			<rect id="Frame 57" rx="41.500000" width="83.000000" height="83.000000" transform="translate(24.500000 20.500000)" fill="white" fill-opacity="0"/>
		</clipPath>
	</defs>
	<g filter="url(#filter_1510_516_dd)">
		<g filter="url(#filter_1510_516_dd)">
			<path id="Frame 57" d="M24 62C24 38.8 42.8 20 66 20C89.19 20 108 38.8 108 62C108 85.19 89.19 104 66 104L24 104L24 62Z" fill="#2770F1" fill-opacity="1.000000" fill-rule="evenodd"/>
		</g>
		<g clip-path="url(#clip1510_516)">
			<path id="6" d="M72.86 59.87Q70.79 58.94 68.29 58.94Q64.42 58.94 62.04 60.82Q61.69 61.1 61.37 61.42Q61.53 57.49 63.58 55.41Q63.6 55.39 63.62 55.37Q64.02 54.97 64.48 54.64Q66.39 53.29 69.25 53.29Q72.42 53.29 74.5 54.7L76.9 49.93Q75.45 49.01 73.39 48.52Q71.33 48.02 69.09 48.02Q64.86 48.02 61.63 49.78Q60.47 50.41 59.49 51.26Q57.76 52.76 56.61 54.93Q54.82 58.33 54.82 63.1Q54.82 69.78 58.14 73.38Q58.89 74.2 59.78 74.83Q62.79 76.97 67.34 76.97Q70.3 76.97 72.72 75.84Q74.37 75.06 75.54 73.83Q76.09 73.25 76.54 72.58Q76.83 72.14 77.06 71.67Q77.93 69.88 77.93 67.66Q77.93 65.6 77.13 63.92Q76.92 63.49 76.65 63.08Q76.17 62.33 75.56 61.72Q74.55 60.69 73.18 60.02Q73.02 59.94 72.86 59.87ZM70 71.29Q68.78 72.14 66.98 72.14Q64.77 72.14 63.46 71.05Q63.42 71.02 63.37 70.98Q62.8 70.47 62.47 69.84Q62.05 69.02 62.05 67.98Q62.05 66.99 62.44 66.19Q62.78 65.5 63.41 64.95Q63.67 64.73 63.95 64.55Q65.18 63.77 66.9 63.77Q68.86 63.77 70.11 64.71Q70.23 64.81 70.35 64.91Q70.8 65.31 71.1 65.8Q71.65 66.72 71.65 67.98Q71.65 69.23 71.1 70.15Q70.8 70.63 70.35 71.02Q70.18 71.16 70 71.29Z" fill="#FFFFFF" fill-opacity="1.000000" fill-rule="evenodd"/>
		</g>
	</g>
</svg>
