<svg width="24.000000" height="24.000000" viewBox="0 0 24 24" fill="none" xmlns="http://www.w3.org/2000/svg" xmlns:xlink="http://www.w3.org/1999/xlink">
	<desc>
			Created with Pixso.
	</desc>
	<defs>
		<clipPath id="clip1579_664">
			<rect id="Frame 79" rx="3.500000" width="23.000000" height="23.000000" transform="translate(0.500000 0.500000)" fill="white" fill-opacity="0"/>
		</clipPath>
	</defs>
	<rect id="Frame 79" rx="3.500000" width="23.000000" height="23.000000" transform="translate(0.500000 0.500000)" fill="#FFFFFF" fill-opacity="1.000000"/>
	<g clip-path="url(#clip1579_664)">
		<path id="5" d="M15.21 11.83Q14.08 10.87 11.73 10.87L10.98 10.87L11.12 9.24L15.64 9.24L15.64 6.8L8.5 6.8L7.94 13.34L10.98 13.34Q12.19 13.34 12.67 13.63Q12.92 13.77 13.04 13.99Q13.16 14.2 13.16 14.48Q13.16 14.73 13.05 14.94Q12.93 15.18 12.67 15.35Q12.18 15.66 11.36 15.66Q11.27 15.66 11.18 15.66Q10.46 15.63 9.74 15.42Q8.98 15.19 8.34 14.78Q8.3 14.76 8.26 14.73L7.12 17.12Q7.96 17.64 9.12 17.93Q9.88 18.12 10.66 18.18Q11.06 18.22 11.46 18.22Q13.07 18.22 14.17 17.7Q15.26 17.18 15.79 16.33Q15.8 16.32 15.8 16.31Q16.04 15.93 16.17 15.52Q16.34 14.99 16.34 14.39Q16.34 13.43 15.92 12.69Q15.66 12.21 15.21 11.83Z" fill="#1B315F" fill-opacity="1.000000" fill-rule="evenodd"/>
	</g>
</svg>
