<svg width="158.000000" height="21.000000" viewBox="0 0 158 21" fill="none" xmlns="http://www.w3.org/2000/svg" xmlns:xlink="http://www.w3.org/1999/xlink">
	<desc>
			Created with Pixso.
	</desc>
	<defs/>
	<path id="ДЕМО ЛОГО" d="M69.54 17.46C67.82 17.46 66.26 17.08 64.87 16.34C63.49 15.57 62.39 14.52 61.59 13.19C60.81 11.86 60.42 10.37 60.42 8.73C60.42 7.08 60.81 5.6 61.59 4.26C62.39 2.93 63.49 1.89 64.87 1.14C66.26 0.38 67.82 0 69.54 0Q71.62 0 73.38 0.75Q73.8 0.92 74.19 1.14Q75.37 1.77 76.25 2.69Q76.94 3.39 77.45 4.26C78.23 5.58 78.62 7.07 78.62 8.73C78.62 10.39 78.23 11.88 77.45 13.21Q77 13.97 76.42 14.6Q75.48 15.63 74.19 16.34Q73.86 16.52 73.51 16.67L73.51 16.67Q71.7 17.46 69.54 17.46ZM116.18 17.46Q113.92 17.46 112.04 16.6L112.04 16.6Q111.77 16.48 111.51 16.34C110.13 15.57 109.03 14.52 108.23 13.19C107.45 11.86 107.06 10.37 107.06 8.73C107.06 7.08 107.45 5.6 108.23 4.26C109.03 2.93 110.13 1.89 111.51 1.14Q111.83 0.96 112.17 0.81L112.17 0.81Q114 0 116.18 0C117.9 0 119.45 0.38 120.83 1.14C122.22 1.89 123.3 2.93 124.09 4.26C124.87 5.58 125.26 7.07 125.26 8.73C125.26 10.39 124.87 11.88 124.09 13.21C123.3 14.53 122.22 15.57 120.83 16.34C119.45 17.08 117.9 17.46 116.18 17.46ZM148.92 17.46C147.19 17.46 145.63 17.08 144.25 16.34C142.86 15.57 141.77 14.52 140.97 13.19Q140.63 12.62 140.39 12.02Q139.79 10.49 139.79 8.73Q139.79 6.96 140.39 5.44Q140.63 4.83 140.97 4.26C141.77 2.93 142.86 1.89 144.25 1.14C145.63 0.38 147.19 0 148.92 0Q151 0 152.75 0.75Q153.17 0.92 153.57 1.14Q154.74 1.77 155.63 2.69L155.63 2.69L155.63 2.69Q156.31 3.39 156.82 4.26C157.6 5.58 158 7.07 158 8.73C158 10.39 157.6 11.88 156.82 13.21Q156.37 13.97 155.79 14.6Q154.85 15.63 153.57 16.34Q153.23 16.52 152.89 16.67L152.89 16.67Q151.07 17.46 148.92 17.46ZM18.66 15.14L18.66 21L16.39 21L16.39 17.26L2.29 17.26L2.27 21L0 21L0.02 15.14L0.85 15.14Q1.18 15.12 1.47 15Q2.6 14.54 3.13 12.6Q3.79 10.14 3.93 5.68L4.11 0.19L16.14 0.19L16.14 15.14L18.66 15.14ZM34.44 15.14L34.44 17.26L22.01 17.26L22.01 0.19L34.09 0.19L34.09 2.31L24.45 2.31L24.45 7.56L33.04 7.56L33.04 9.63L24.45 9.63L24.45 15.14L34.44 15.14ZM54.16 17.26L54.13 4.83L47.94 15.19L46.82 15.19L40.63 4.9L40.63 17.26L38.28 17.26L38.28 0.19L40.29 0.19L47.43 12.19L54.48 0.19L56.48 0.19L56.51 17.26L54.16 17.26ZM103.14 0.19L103.14 17.26L100.75 17.26L100.75 2.31L93.16 2.31L92.99 7.31C92.91 9.67 92.71 11.58 92.4 13.04C92.11 14.51 91.64 15.61 90.98 16.36C90.33 17.09 89.45 17.46 88.34 17.46Q87.58 17.46 86.8 17.26L86.97 15.09C87.23 15.16 87.49 15.19 87.75 15.19C88.45 15.19 89.02 14.91 89.44 14.36C89.87 13.79 90.18 12.95 90.4 11.83C90.61 10.7 90.75 9.22 90.81 7.39L91.08 0.19L103.14 0.19ZM140.42 2.31L131.61 2.31L131.64 17.26L129.22 17.26L129.22 0.19L140.45 0.19L140.42 2.31ZM69.54 15.29C70.8 15.29 71.93 15 72.92 14.43C73.93 13.86 74.72 13.08 75.29 12.09C75.88 11.08 76.18 9.96 76.18 8.73C76.18 7.49 75.88 6.38 75.29 5.39C74.72 4.38 73.93 3.59 72.92 3.02C71.93 2.45 70.8 2.16 69.54 2.16C68.29 2.16 67.15 2.45 66.12 3.02C65.11 3.59 64.31 4.38 63.72 5.39C63.15 6.38 62.87 7.49 62.87 8.73C62.87 9.96 63.15 11.08 63.72 12.09C64.31 13.08 65.11 13.86 66.12 14.43C67.15 15 68.29 15.29 69.54 15.29ZM116.18 15.29C117.44 15.29 118.57 15 119.56 14.43C120.57 13.86 121.36 13.08 121.93 12.09Q122.19 11.65 122.37 11.18L122.37 11.18Q122.82 10.04 122.82 8.73Q122.82 7.34 122.33 6.17L122.33 6.17Q122.16 5.76 121.93 5.39C121.36 4.38 120.57 3.59 119.56 3.02C118.57 2.45 117.44 2.16 116.18 2.16C114.93 2.16 113.79 2.45 112.76 3.02C111.75 3.59 110.95 4.38 110.36 5.39C109.79 6.38 109.51 7.49 109.51 8.73C109.51 9.96 109.79 11.08 110.36 12.09C110.95 13.08 111.75 13.86 112.76 14.43C113.79 15 114.93 15.29 116.18 15.29ZM148.92 15.29C150.17 15.29 151.3 15 152.29 14.43C153.31 13.86 154.1 13.08 154.67 12.09C155.25 11.08 155.55 9.96 155.55 8.73C155.55 7.49 155.25 6.38 154.67 5.39C154.1 4.38 153.31 3.59 152.29 3.02C151.3 2.45 150.17 2.16 148.92 2.16C147.66 2.16 146.52 2.45 145.49 3.02Q144.76 3.43 144.18 3.99L144.18 3.99Q143.55 4.6 143.1 5.39Q142.91 5.71 142.76 6.05L142.76 6.05Q142.24 7.28 142.24 8.73Q142.24 10.11 142.71 11.3Q142.88 11.71 143.1 12.09Q143.51 12.8 144.08 13.36L144.08 13.36Q144.7 13.99 145.49 14.43C146.52 15 147.66 15.29 148.92 15.29ZM6.09 5.9Q5.96 9.51 5.5 11.87Q5.06 14.24 4.06 15.14L13.72 15.14L13.72 2.31L6.21 2.31L6.09 5.9Z" fill="#FFFFFF" fill-opacity="1.000000" fill-rule="evenodd"/>
</svg>
