<svg width="88" height="88" viewBox="0 0 88 88" fill="none" xmlns="http://www.w3.org/2000/svg">
<rect width="88" height="88" rx="8" fill="#F1F5FF"/>
<path fill-rule="evenodd" clip-rule="evenodd" d="M44.5 32.2342C43.3954 32.2342 42.5 31.3388 42.5 30.2342C42.5 29.105 41.9802 27.2797 40.5787 25.7495C39.2362 24.2839 37.0014 23 33.3764 23C30.4628 23 27.6407 23.9675 25.5612 25.9523C23.5083 27.9119 22 31.0341 22 35.7063C22 43.5348 27.5551 50.8491 33.6052 56.4232C36.5777 59.1619 39.5591 61.3789 41.801 62.9124C42.9201 63.6779 43.8502 64.2698 44.4965 64.6681C44.4977 64.6688 44.4988 64.6695 44.5 64.6702C44.5012 64.6695 44.5023 64.6688 44.5035 64.6681C45.1498 64.2698 46.0799 63.6779 47.199 62.9124C49.4409 61.3789 52.4223 59.1619 55.3948 56.4232C61.4449 50.8491 67 43.5348 67 35.7063C67 31.0341 65.4917 27.9119 63.4388 25.9523C61.3593 23.9675 58.5372 23 55.6236 23C51.9986 23 49.7638 24.2839 48.4213 25.7495C47.0199 27.2797 46.5 29.105 46.5 30.2342C46.5 31.3388 45.6046 32.2342 44.5 32.2342ZM45.6134 26.2562C47.0939 23.5701 50.1797 21 55.6236 21C62.3113 21 69 25.4461 69 35.7063C69 53.1487 44.5 67 44.5 67C44.5 67 20 53.1487 20 35.7063C20 25.4461 26.6887 21 33.3764 21C38.8203 21 41.9061 23.5701 43.3866 26.2562C44.1654 27.6692 44.5 29.1142 44.5 30.2342C44.5 29.1142 44.8346 27.6692 45.6134 26.2562Z" fill="#2770F1"/>
<path fill-rule="evenodd" clip-rule="evenodd" d="M39.9097 30.2822L47.1691 51.5386L52.269 42.2945L71 42.2945C71.5523 42.2945 72 42.7422 72 43.2945C72 43.8467 71.5523 44.2945 71 44.2945L53.4498 44.2945L46.7371 56.462L39.6528 35.7185L35.7867 44.2945L17 44.2945C16.4477 44.2945 16 43.8467 16 43.2945C16 42.7422 16.4477 42.2945 17 42.2945L34.4945 42.2945L39.9097 30.2822Z" fill="#1B315F"/>
</svg>
