<svg width="289.000000" height="64.000000" viewBox="0 0 289 64" fill="none" xmlns="http://www.w3.org/2000/svg" xmlns:xlink="http://www.w3.org/1999/xlink">
	<desc>
			Created with Pixso.
	</desc>
	<defs>
		<clipPath id="clip2_138">
			<rect id="Frame 171" rx="31.500000" width="63.000000" height="63.000000" transform="translate(0.500000 0.500000)" fill="white" fill-opacity="0"/>
		</clipPath>
	</defs>
	<path id="Frame 171" d="M32 0L64 0L64 32C64 49.67 49.67 64 32 64L0 64L0 32C0 14.32 14.32 0 32 0Z" fill="#2770F1" fill-opacity="1.000000" fill-rule="evenodd"/>
	<g clip-path="url(#clip2_138)">
		<rect id="Rectangle 80" x="54.000000" y="26.000000" rx="6.000000" width="12.000001" height="15.999999" transform="rotate(90 54.000000 26.000000)" fill="#1EBB92" fill-opacity="1.000000"/>
		<path id="Subtract" d="" fill="#FFFFFF" fill-opacity="1.000000" fill-rule="nonzero"/>
	</g>
	<rect id="Frame 172" rx="0.000000" width="213.000000" height="55.000000" transform="translate(75.500000 4.500000)" fill="#FFFFFF" fill-opacity="0"/>
	<path id="Vector" d="M79.72 33.17Q78.4 33.17 77.49 32.56Q77.25 32.4 77.03 32.19Q76.86 32.02 76.72 31.81Q76.05 30.88 76.05 29.47L76.05 7.7Q76.05 6.39 76.66 5.48L76.66 5.48Q76.82 5.23 77.03 5.01Q77.29 4.75 77.59 4.56Q78.48 4 79.72 4Q81 4 81.87 4.59L81.87 4.59Q82.14 4.77 82.37 5.01Q82.58 5.21 82.75 5.44Q83.39 6.34 83.39 7.7L83.39 15.39L85.55 15.39L93.78 5.42C94.54 4.5 95.44 4.04 96.47 4.04C97.31 4.04 98.05 4.35 98.67 4.97C99.33 5.57 99.65 6.27 99.65 7.09C99.65 7.9 99.35 8.65 98.75 9.33L92.32 16.89C93.32 17.36 94.1 17.8 94.64 18.24C95.18 18.67 95.67 19.21 96.11 19.86C96.54 20.49 97.19 21.56 98.06 23.08L100.59 27.6C100.97 28.25 101.16 28.93 101.16 29.63C101.16 30.61 100.81 31.43 100.1 32.11C99.39 32.79 98.58 33.13 97.65 33.13C96.35 33.13 95.32 32.47 94.56 31.14L90.81 24.3C90.21 23.19 89.58 22.41 88.93 21.98C88.28 21.55 87.28 21.33 85.92 21.33L83.39 21.33L83.39 29.47Q83.39 30.71 82.83 31.59L82.83 31.59Q82.63 31.89 82.37 32.15C81.72 32.83 80.84 33.17 79.72 33.17ZM154.8 6.35C155.42 5.46 156.05 4.85 156.67 4.52C157.33 4.17 158.31 4 159.61 4C160.72 4 161.58 4.29 162.18 4.89C162.77 5.46 163.07 6.3 163.07 7.41L163.07 29.47Q163.07 30.71 162.51 31.59L162.51 31.59Q162.32 31.89 162.05 32.15C161.4 32.83 160.52 33.17 159.41 33.17C158.29 33.17 157.39 32.85 156.72 32.19C156.06 31.52 155.74 30.61 155.74 29.47L155.74 14.9L145.75 29.92C145.1 30.84 144.5 31.54 143.96 32.03C143.44 32.49 142.9 32.79 142.33 32.93C141.79 33.09 141.11 33.17 140.29 33.17C139.18 33.17 138.32 32.89 137.72 32.32C137.13 31.72 136.83 30.86 136.83 29.75L136.83 7.7C136.83 6.59 137.15 5.69 137.81 5.01C138.49 4.33 139.38 4 140.5 4C141.61 4 142.49 4.33 143.14 5.01C143.82 5.66 144.16 6.56 144.16 7.7L144.16 22.22L154.8 6.35ZM217.92 6.35C218.55 5.46 219.17 4.85 219.8 4.52C220.45 4.17 221.43 4 222.73 4C223.84 4 224.7 4.29 225.3 4.89C225.9 5.46 226.19 6.3 226.19 7.41L226.19 29.47C226.19 30.58 225.85 31.48 225.18 32.15C224.52 32.83 223.64 33.17 222.53 33.17C221.41 33.17 220.52 32.85 219.84 32.19C219.18 31.52 218.86 30.61 218.86 29.47L218.86 14.9L208.87 29.92C208.22 30.84 207.62 31.54 207.08 32.03C206.56 32.49 206.02 32.79 205.45 32.93C204.91 33.09 204.23 33.17 203.41 33.17C202.3 33.17 201.44 32.89 200.85 32.32C200.25 31.72 199.95 30.86 199.95 29.75L199.95 7.7C199.95 6.59 200.27 5.69 200.93 5.01C201.61 4.33 202.5 4 203.62 4C204.73 4 205.61 4.33 206.27 5.01Q206.47 5.21 206.64 5.44Q207.28 6.34 207.28 7.7L207.28 22.22L217.92 6.35ZM235.1 33.17C233.98 33.17 233.09 32.85 232.41 32.19Q232.24 32.02 232.09 31.81Q231.43 30.88 231.43 29.47L231.43 7.7Q231.43 6.39 232.04 5.48L232.04 5.48Q232.2 5.23 232.41 5.01C233.09 4.33 233.98 4 235.1 4C236.21 4 237.09 4.33 237.75 5.01Q237.96 5.21 238.12 5.44Q238.77 6.34 238.77 7.7L238.77 15.39L240.93 15.39L249.16 5.42C249.92 4.5 250.82 4.04 251.85 4.04C252.69 4.04 253.42 4.35 254.05 4.97C254.7 5.57 255.03 6.27 255.03 7.09Q255.03 7.45 254.95 7.79Q254.76 8.61 254.13 9.33L247.69 16.89C248.7 17.36 249.47 17.8 250.01 18.24Q250.83 18.89 251.48 19.86C251.92 20.49 252.57 21.56 253.44 23.08L255.96 27.6C256.34 28.25 256.53 28.93 256.53 29.63C256.53 30.61 256.18 31.43 255.47 32.11C254.77 32.79 253.95 33.13 253.03 33.13C251.73 33.13 250.69 32.47 249.93 31.14L246.18 24.3C245.58 23.19 244.96 22.41 244.31 21.98C243.66 21.55 242.65 21.33 241.29 21.33L238.77 21.33L238.77 29.47Q238.77 30.71 238.2 31.59L238.2 31.59Q238.01 31.89 237.75 32.15C237.09 32.83 236.21 33.17 235.1 33.17ZM288.63 28.33C288.87 28.84 289 29.35 289 29.83C289 30.73 288.63 31.49 287.89 32.11C287.19 32.74 286.37 33.05 285.45 33.05C284.82 33.05 284.25 32.89 283.74 32.56C283.22 32.23 282.81 31.75 282.51 31.1L280.68 26.99L267.48 26.99L265.6 31.1C265.3 31.75 264.88 32.23 264.34 32.56C263.82 32.89 263.25 33.05 262.63 33.05C261.7 33.05 260.86 32.74 260.1 32.11C259.37 31.49 259 30.73 259 29.83C259 29.35 259.12 28.84 259.37 28.33L270.13 6.27C270.48 5.54 271 4.99 271.68 4.61C272.38 4.2 273.16 4 274 4C274.81 4 275.57 4.2 276.28 4.61C276.99 4.99 277.52 5.54 277.87 6.27L288.63 28.33ZM191.05 4.04C192.16 4.04 193.05 4.37 193.7 5.05C194.38 5.7 194.72 6.59 194.72 7.7L194.72 29.47C194.72 30.58 194.38 31.48 193.7 32.15C193.05 32.83 192.16 33.17 191.05 33.17C189.94 33.17 189.04 32.85 188.36 32.19Q188.19 32.02 188.05 31.81Q187.38 30.88 187.38 29.47L187.38 21.33L175.64 21.33L175.64 29.47C175.64 30.58 175.31 31.48 174.63 32.15C173.97 32.83 173.09 33.17 171.98 33.17C170.86 33.17 169.97 32.85 169.29 32.19C168.63 31.52 168.31 30.61 168.31 29.47L168.31 7.7C168.31 6.59 168.63 5.7 169.29 5.05C169.97 4.37 170.86 4.04 171.98 4.04C173.09 4.04 173.97 4.37 174.63 5.05C175.31 5.7 175.64 6.59 175.64 7.7L175.64 15.39L187.38 15.39L187.38 7.7Q187.38 6.36 188.01 5.46L188.01 5.46Q188.17 5.24 188.36 5.05C189.04 4.37 189.94 4.04 191.05 4.04ZM117.23 13.92Q117.23 21.7 115.31 25.89Q113.92 28.95 111.58 30.88Q110.72 31.59 109.73 32.15C108.86 32.67 108.03 32.93 107.25 32.93C106.35 32.93 105.62 32.64 105.04 32.07Q104.64 31.65 104.43 31.16Q104.19 30.59 104.19 29.92C104.19 29.24 104.39 28.59 104.8 27.96C105.21 27.31 105.82 26.74 106.63 26.25C108.89 24.73 110.02 21.06 110.02 15.23L110.02 7.7C110.02 6.59 110.32 5.73 110.91 5.13Q110.98 5.07 111.05 5L111.06 5Q111.94 4.24 113.48 4.24L128.15 4.24C129.27 4.24 130.12 4.54 130.72 5.13C131.34 5.73 131.66 6.59 131.66 7.7L131.66 29.47C131.66 30.58 131.32 31.48 130.64 32.15C129.96 32.83 129.06 33.17 127.95 33.17C126.83 33.17 125.94 32.85 125.26 32.19C124.61 31.52 124.28 30.61 124.28 29.47L124.28 10.1L117.23 10.1L117.23 13.92ZM270 21.37L278.16 21.37L274.08 12.3L270 21.37ZM133.78 60C131.84 60 130.28 59.43 129.12 58.29C127.96 57.15 127.3 55.58 127.14 53.59L124.47 53.59L124.47 58.63C124.47 59.03 124.35 59.34 124.1 59.59C123.87 59.82 123.56 59.93 123.17 59.93C122.77 59.93 122.46 59.82 122.23 59.59C122 59.34 121.88 59.03 121.88 58.63L121.88 46.65C121.88 46.25 122 45.94 122.23 45.71C122.47 45.47 122.79 45.35 123.17 45.35C123.56 45.35 123.87 45.47 124.1 45.71C124.35 45.94 124.47 46.25 124.47 46.65L124.47 51.47L127.16 51.47C127.36 49.53 128.04 48.02 129.2 46.93C130.35 45.83 131.88 45.29 133.78 45.29C135.17 45.29 136.36 45.58 137.37 46.18C138.37 46.78 139.14 47.62 139.67 48.72C140.2 49.82 140.47 51.12 140.47 52.63C140.47 54.14 140.2 55.44 139.67 56.56C139.14 57.66 138.37 58.5 137.37 59.1C136.36 59.7 135.17 60 133.78 60ZM157.68 60C156.3 60 155.08 59.7 154.04 59.1C153 58.5 152.21 57.65 151.65 56.54C151.1 55.42 150.82 54.12 150.82 52.63C150.82 51.14 151.1 49.84 151.65 48.74C152.21 47.63 153 46.78 154.04 46.18C155.08 45.58 156.3 45.29 157.68 45.29C158.58 45.29 159.42 45.42 160.21 45.69C161 45.95 161.7 46.33 162.31 46.83C162.49 46.97 162.61 47.11 162.68 47.26C162.75 47.41 162.78 47.59 162.78 47.81C162.78 48.11 162.7 48.36 162.53 48.56C162.37 48.76 162.17 48.87 161.94 48.87C161.67 48.87 161.39 48.77 161.11 48.58C160.52 48.15 159.98 47.85 159.48 47.69C158.98 47.51 158.42 47.42 157.81 47.42Q156.17 47.42 155.14 48.22Q154.84 48.45 154.59 48.74C153.87 49.63 153.51 50.92 153.51 52.63C153.51 54.35 153.87 55.65 154.59 56.54C155.32 57.42 156.39 57.86 157.81 57.86C158.39 57.86 158.93 57.77 159.42 57.59C159.92 57.42 160.48 57.12 161.11 56.7C161.24 56.62 161.38 56.55 161.52 56.5C161.65 56.44 161.79 56.41 161.94 56.41C162.17 56.41 162.37 56.52 162.53 56.72C162.7 56.92 162.78 57.17 162.78 57.47C162.78 57.68 162.75 57.86 162.68 58.02C162.61 58.17 162.49 58.31 162.31 58.45C161.7 58.95 161 59.34 160.21 59.61C159.42 59.87 158.58 60 157.68 60ZM76.28 59.93C75.88 59.93 75.57 59.82 75.34 59.59C75.11 59.34 75 59.02 75 58.61L75 46.75C75 46.37 75.12 46.06 75.36 45.83C75.61 45.59 75.92 45.47 76.3 45.47L85.92 45.47C86.3 45.47 86.6 45.59 86.83 45.83C87.08 46.06 87.2 46.37 87.2 46.75L87.2 58.63C87.2 59.03 87.08 59.34 86.83 59.59C86.6 59.82 86.3 59.93 85.92 59.93C85.52 59.93 85.21 59.82 84.98 59.59C84.75 59.34 84.63 59.03 84.63 58.63L84.63 47.56L77.58 47.56L77.58 58.63C77.58 59.03 77.46 59.34 77.22 59.59C76.99 59.82 76.67 59.93 76.28 59.93ZM103.03 49.31C103.03 51.33 102.9 53.02 102.63 54.36C102.37 55.69 101.97 56.77 101.42 57.59C100.89 58.41 100.21 59.07 99.37 59.59C99.09 59.75 98.82 59.83 98.55 59.83C98.24 59.83 97.97 59.72 97.76 59.51C97.55 59.29 97.45 59.03 97.45 58.73C97.45 58.5 97.52 58.28 97.65 58.06C97.79 57.85 97.99 57.66 98.27 57.49C99.03 57.09 99.59 56.29 99.96 55.11Q100.51 53.32 100.51 49.74L100.51 46.71C100.51 46.32 100.62 46.01 100.83 45.79C101.05 45.58 101.36 45.47 101.75 45.47L109.39 45.47C109.79 45.47 110.08 45.58 110.29 45.79C110.51 46.01 110.61 46.32 110.61 46.71L110.61 58.63C110.61 59.03 110.49 59.34 110.25 59.59C110.02 59.82 109.71 59.93 109.33 59.93C108.94 59.93 108.62 59.82 108.39 59.59C108.16 59.34 108.05 59.03 108.05 58.63L108.05 47.56L103.03 47.56L103.03 49.31ZM133.78 57.9C135.09 57.9 136.09 57.45 136.8 56.56C137.5 55.65 137.86 54.34 137.86 52.63C137.86 50.92 137.5 49.62 136.8 48.72Q136.48 48.31 136.07 48.02Q135.15 47.38 133.78 47.38C132.46 47.38 131.45 47.83 130.75 48.72C130.05 49.62 129.71 50.92 129.71 52.63C129.71 54.34 130.05 55.65 130.75 56.56C131.45 57.45 132.46 57.9 133.78 57.9Z" fill="#1B315F" fill-opacity="1.000000" fill-rule="evenodd"/>
	<rect id="Rectangle 82" x="178.000000" y="48.000000" rx="4.000000" width="8.000000" height="8.000000" fill="#689BF5" fill-opacity="1.000000"/>
	<rect id="Rectangle 83" x="194.000000" y="48.000000" rx="4.000000" width="8.000000" height="8.000000" fill="#689BF5" fill-opacity="1.000000"/>
	<rect id="Rectangle 84" x="210.000000" y="48.000000" rx="4.000000" width="8.000000" height="8.000000" fill="#689BF5" fill-opacity="1.000000"/>
</svg>

