<svg width="89" height="88" viewBox="0 0 89 88" fill="none" xmlns="http://www.w3.org/2000/svg">
<rect x="0.5" width="88" height="88" rx="8" fill="#F1F5FF"/>
<path fill-rule="evenodd" clip-rule="evenodd" d="M56.5 20H33.5C30.1863 20 27.5 22.6863 27.5 26V61C27.5 64.3137 30.1863 67 33.5 67H56.5C59.8137 67 62.5 64.3137 62.5 61V26C62.5 22.6863 59.8137 20 56.5 20ZM33.5 18C29.0817 18 25.5 21.5817 25.5 26V61C25.5 65.4183 29.0817 69 33.5 69H56.5C60.9183 69 64.5 65.4183 64.5 61V26C64.5 21.5817 60.9183 18 56.5 18H33.5Z" fill="#2770F1"/>
<path fill-rule="evenodd" clip-rule="evenodd" d="M42.5 28.5C42.5 31.5376 40.0376 34 37 34C33.9624 34 31.5 31.5376 31.5 28.5C31.5 25.4624 33.9624 23 37 23C40.0376 23 42.5 25.4624 42.5 28.5ZM40.5 28.5C40.5 30.433 38.933 32 37 32C36.3973 32 35.8301 31.8477 35.335 31.5794L40.0794 26.835C40.3477 27.3301 40.5 27.8973 40.5 28.5ZM33.9207 30.1652L38.6652 25.4207C38.17 25.1524 37.6028 25 37 25C35.067 25 33.5 26.567 33.5 28.5C33.5 29.1028 33.6524 29.67 33.9207 30.1652Z" fill="#1B315F"/>
<path fill-rule="evenodd" clip-rule="evenodd" d="M58.5 28.5C58.5 31.5376 56.0376 34 53 34C49.9624 34 47.5 31.5376 47.5 28.5C47.5 25.4624 49.9624 23 53 23C56.0376 23 58.5 25.4624 58.5 28.5ZM56.5 28.5C56.5 30.433 54.933 32 53 32C52.3973 32 51.8301 31.8477 51.335 31.5794L56.0794 26.835C56.3477 27.3301 56.5 27.8973 56.5 28.5ZM49.9207 30.1652L54.6652 25.4207C54.17 25.1524 53.6028 25 53 25C51.067 25 49.5 26.567 49.5 28.5C49.5 29.1028 49.6524 29.67 49.9207 30.1652Z" fill="#2770F1"/>
<path fill-rule="evenodd" clip-rule="evenodd" d="M58.5 43.5C58.5 46.5376 56.0376 49 53 49C49.9624 49 47.5 46.5376 47.5 43.5C47.5 40.4624 49.9624 38 53 38C56.0376 38 58.5 40.4624 58.5 43.5ZM56.5 43.5C56.5 45.433 54.933 47 53 47C52.3973 47 51.8301 46.8477 51.335 46.5794L56.0794 41.835C56.3477 42.3301 56.5 42.8973 56.5 43.5ZM49.9207 45.1652L54.6652 40.4207C54.17 40.1524 53.6028 40 53 40C51.067 40 49.5 41.567 49.5 43.5C49.5 44.1028 49.6524 44.67 49.9207 45.1652Z" fill="#1B315F"/>
<path fill-rule="evenodd" clip-rule="evenodd" d="M58.5 59.5C58.5 62.5376 56.0376 65 53 65C49.9624 65 47.5 62.5376 47.5 59.5C47.5 56.4624 49.9624 54 53 54C56.0376 54 58.5 56.4624 58.5 59.5ZM56.5 59.5C56.5 61.433 54.933 63 53 63C52.3973 63 51.8301 62.8477 51.335 62.5794L56.0794 57.835C56.3477 58.3301 56.5 58.8973 56.5 59.5ZM49.9207 61.1652L54.6652 56.4207C54.17 56.1524 53.6028 56 53 56C51.067 56 49.5 57.567 49.5 59.5C49.5 60.1028 49.6524 60.67 49.9207 61.1652Z" fill="#2770F1"/>
<path fill-rule="evenodd" clip-rule="evenodd" d="M42.5 43.5C42.5 46.5376 40.0376 49 37 49C33.9624 49 31.5 46.5376 31.5 43.5C31.5 40.4624 33.9624 38 37 38C40.0376 38 42.5 40.4624 42.5 43.5ZM40.5 43.5C40.5 45.433 38.933 47 37 47C36.3973 47 35.8301 46.8477 35.335 46.5794L40.0794 41.835C40.3477 42.3301 40.5 42.8973 40.5 43.5ZM33.9207 45.1652L38.6652 40.4207C38.17 40.1524 37.6028 40 37 40C35.067 40 33.5 41.567 33.5 43.5C33.5 44.1028 33.6524 44.67 33.9207 45.1652Z" fill="#2770F1"/>
<path fill-rule="evenodd" clip-rule="evenodd" d="M42.5 59.5C42.5 62.5376 40.0376 65 37 65C33.9624 65 31.5 62.5376 31.5 59.5C31.5 56.4624 33.9624 54 37 54C40.0376 54 42.5 56.4624 42.5 59.5ZM40.5 59.5C40.5 61.433 38.933 63 37 63C36.3973 63 35.8301 62.8477 35.335 62.5794L40.0794 57.835C40.3477 58.3301 40.5 58.8973 40.5 59.5ZM33.9207 61.1652L38.6652 56.4207C38.17 56.1524 37.6028 56 37 56C35.067 56 33.5 57.567 33.5 59.5C33.5 60.1028 33.6524 60.67 33.9207 61.1652Z" fill="#1B315F"/>
</svg>
