<svg width="56.000000" height="56.000000" viewBox="0 0 56 56" fill="none" xmlns="http://www.w3.org/2000/svg" xmlns:xlink="http://www.w3.org/1999/xlink">
	<desc>
			Created with Pixso.
	</desc>
	<defs>
		<clipPath id="clip2_158">
			<rect id="Frame 123" rx="4.000000" width="56.000000" height="56.000000" fill="white" fill-opacity="0"/>
		</clipPath>
	</defs>
	<rect id="Frame 123" rx="4.000000" width="56.000000" height="56.000000" fill="#F1F5FF" fill-opacity="1.000000"/>
	<g clip-path="url(#clip2_158)">
		<path id="Union" d="M32.95 35.78C30.99 37.17 28.59 38 26 38C19.37 38 14 32.62 14 26C14 19.37 19.37 14 26 14C32.62 14 38 19.37 38 26C38 28.59 37.17 30.99 35.78 32.95L41.58 38.75C42.36 39.54 42.36 40.8 41.58 41.58C40.8 42.36 39.54 42.36 38.75 41.58L32.95 35.78ZM34 26C34 30.41 30.41 34 26 34C21.58 34 18 30.41 18 26C18 21.58 21.58 18 26 18C30.41 18 34 21.58 34 26Z" fill="#2770F1" fill-opacity="1.000000" fill-rule="evenodd"/>
	</g>
</svg>
