<svg width="24.000000" height="24.000000" viewBox="0 0 24 24" fill="none" xmlns="http://www.w3.org/2000/svg" xmlns:xlink="http://www.w3.org/1999/xlink">
	<desc>
			Created with Pixso.
	</desc>
	<defs>
		<clipPath id="clip1579_668">
			<rect id="Frame 78" rx="3.500000" width="23.000000" height="23.000000" transform="translate(0.500000 0.500000)" fill="white" fill-opacity="0"/>
		</clipPath>
	</defs>
	<rect id="Frame 78" rx="3.500000" width="23.000000" height="23.000000" transform="translate(0.500000 0.500000)" fill="#FFFFFF" fill-opacity="1.000000"/>
	<g clip-path="url(#clip1579_668)">
		<path id="6" d="M14.38 11.16Q13.63 10.86 12.77 10.86Q11.36 10.86 10.44 11.53Q10.33 11.61 10.24 11.69Q10.34 10.56 10.95 9.91Q11.02 9.83 11.1 9.76Q11.22 9.65 11.35 9.56Q12.04 9.08 13.07 9.08Q14.32 9.08 15.14 9.66L16.29 7.39Q15.68 6.99 14.82 6.78Q13.95 6.57 12.99 6.57Q11.21 6.57 9.87 7.29Q9.33 7.58 8.89 7.98Q8.23 8.57 7.78 9.4Q7.04 10.78 7.04 12.7Q7.04 15.25 8.31 16.66Q8.37 16.73 8.43 16.8Q8.71 17.09 9.04 17.32Q10.32 18.22 12.22 18.22Q13.46 18.22 14.46 17.75Q15.14 17.42 15.64 16.91Q15.86 16.68 16.04 16.41Q16.2 16.16 16.32 15.9Q16.62 15.21 16.62 14.39Q16.62 13.62 16.34 12.98Q16.24 12.75 16.1 12.55Q15.89 12.21 15.61 11.94Q15.22 11.56 14.7 11.3Q14.55 11.22 14.38 11.16ZM12.95 15.72Q12.57 15.96 12.03 15.96Q11.4 15.96 10.99 15.66Q10.94 15.62 10.89 15.57Q10.73 15.42 10.63 15.24Q10.46 14.94 10.46 14.55Q10.46 14.15 10.64 13.84Q10.74 13.67 10.89 13.53Q10.98 13.44 11.08 13.38Q11.47 13.13 12.01 13.13Q12.59 13.13 12.98 13.4Q13.06 13.45 13.12 13.51Q13.27 13.64 13.36 13.8Q13.55 14.11 13.55 14.54Q13.55 15 13.34 15.32Q13.25 15.46 13.12 15.58Q13.04 15.66 12.95 15.72Z" fill="#1B315F" fill-opacity="1.000000" fill-rule="evenodd"/>
	</g>
</svg>
