<svg width="125" height="128" viewBox="0 0 125 128" fill="none" xmlns="http://www.w3.org/2000/svg">
<g filter="url(#filter0_d_1565_910)">
<path d="M16.6667 58C16.6667 34.804 35.4708 16 58.6667 16C81.8627 16 100.667 34.804 100.667 58C100.667 81.196 81.8627 100 58.6667 100H16.6667V58Z" fill="#2770F1"/>
<path d="M60.9724 54.94C62.759 54.94 64.3857 55.3 65.8524 56.02C67.319 56.74 68.479 57.7667 69.3324 59.1C70.1857 60.4067 70.6124 61.9267 70.6124 63.66C70.6124 65.5267 70.1457 67.1667 69.2124 68.58C68.279 69.9933 66.999 71.0867 65.3724 71.86C63.7724 72.6067 61.9857 72.98 60.0124 72.98C56.0924 72.98 53.0257 71.78 50.8124 69.38C48.599 66.98 47.4924 63.5533 47.4924 59.1C47.4924 55.9267 48.0924 53.2067 49.2924 50.94C50.4924 48.6733 52.159 46.9533 54.2924 45.78C56.4524 44.6067 58.9457 44.02 61.7724 44.02C63.2657 44.02 64.6924 44.1933 66.0524 44.54C67.439 44.86 68.6124 45.3267 69.5724 45.94L67.1724 50.7C65.7857 49.7667 64.039 49.3 61.9324 49.3C59.559 49.3 57.679 49.9933 56.2924 51.38C54.9057 52.7667 54.159 54.78 54.0524 57.42C55.7057 55.7667 58.0124 54.94 60.9724 54.94ZM59.6524 68.14C61.039 68.14 62.159 67.7667 63.0124 67.02C63.8924 66.2733 64.3324 65.26 64.3324 63.98C64.3324 62.7 63.8924 61.6867 63.0124 60.94C62.159 60.1667 61.0124 59.78 59.5724 59.78C58.159 59.78 56.999 60.18 56.0924 60.98C55.1857 61.7533 54.7324 62.7533 54.7324 63.98C54.7324 65.2067 55.1724 66.2067 56.0524 66.98C56.9324 67.7533 58.1324 68.14 59.6524 68.14Z" fill="white"/>
</g>
<defs>
<filter id="filter0_d_1565_910" x="-7.33325" y="-4" width="132" height="132" filterUnits="userSpaceOnUse" color-interpolation-filters="sRGB">
<feFlood flood-opacity="0" result="BackgroundImageFix"/>
<feColorMatrix in="SourceAlpha" type="matrix" values="0 0 0 0 0 0 0 0 0 0 0 0 0 0 0 0 0 0 127 0" result="hardAlpha"/>
<feOffset dy="4"/>
<feGaussianBlur stdDeviation="12"/>
<feComposite in2="hardAlpha" operator="out"/>
<feColorMatrix type="matrix" values="0 0 0 0 0.105882 0 0 0 0 0.192157 0 0 0 0 0.372549 0 0 0 0.15 0"/>
<feBlend mode="normal" in2="BackgroundImageFix" result="effect1_dropShadow_1565_910"/>
<feBlend mode="normal" in="SourceGraphic" in2="effect1_dropShadow_1565_910" result="shape"/>
</filter>
</defs>
</svg>
