<svg width="24.000000" height="24.000000" viewBox="0 0 24 24" fill="none" xmlns="http://www.w3.org/2000/svg" xmlns:xlink="http://www.w3.org/1999/xlink">
	<desc>
			Created with Pixso.
	</desc>
	<defs>
		<clipPath id="clip1579_656">
			<rect id="Frame 79" rx="3.500000" width="23.000000" height="23.000000" transform="translate(0.500000 0.500000)" fill="white" fill-opacity="0"/>
		</clipPath>
	</defs>
	<rect id="Frame 79" rx="3.500000" width="23.000000" height="23.000000" transform="translate(0.500000 0.500000)" fill="#FFFFFF" fill-opacity="1.000000"/>
	<g clip-path="url(#clip1579_656)">
		<path id="3" d="M15.39 12.39Q14.65 11.56 13.28 11.28L15.6 8.78L15.6 6.8L7.51 6.8L7.51 9.24L11.92 9.24L9.92 11.4L9.92 13.4L11.25 13.4Q12.47 13.4 12.82 13.95Q12.96 14.18 12.96 14.49Q12.96 14.76 12.85 14.97Q12.73 15.2 12.48 15.35Q12 15.66 11.19 15.66Q10.39 15.66 9.56 15.42Q8.74 15.18 8.08 14.73L6.93 17.12Q7.78 17.64 8.94 17.93Q9.71 18.12 10.48 18.18Q10.88 18.22 11.28 18.22Q12.9 18.22 14 17.7Q15.09 17.18 15.63 16.33Q15.91 15.88 16.05 15.39Q16.16 14.95 16.16 14.49Q16.16 13.72 15.86 13.09Q15.69 12.73 15.42 12.42Q15.4 12.41 15.39 12.39Z" fill="#1B315F" fill-opacity="1.000000" fill-rule="evenodd"/>
	</g>
</svg>
