<svg width="125" height="128" viewBox="0 0 125 128" fill="none" xmlns="http://www.w3.org/2000/svg">
<g filter="url(#filter0_d_1565_893)">
<path d="M16.3333 58C16.3333 34.804 35.1373 16 58.3333 16C81.5292 16 100.333 34.804 100.333 58C100.333 81.196 81.5292 100 58.3333 100H16.3333V58Z" fill="#2770F1"/>
<path d="M69.0164 67.22V72.5H47.8564V68.3L58.6564 58.1C59.803 57.0067 60.5764 56.0733 60.9764 55.3C61.3764 54.5 61.5764 53.7133 61.5764 52.94C61.5764 51.82 61.1897 50.9667 60.4164 50.38C59.6697 49.7667 58.563 49.46 57.0964 49.46C55.8697 49.46 54.763 49.7 53.7764 50.18C52.7897 50.6333 51.963 51.3267 51.2964 52.26L46.5764 49.22C47.6697 47.5933 49.1764 46.3267 51.0964 45.42C53.0164 44.4867 55.2164 44.02 57.6964 44.02C59.7764 44.02 61.5897 44.3667 63.1364 45.06C64.7097 45.7267 65.923 46.6867 66.7764 47.94C67.6564 49.1667 68.0964 50.62 68.0964 52.3C68.0964 53.82 67.7764 55.2467 67.1364 56.58C66.4964 57.9133 65.2564 59.4333 63.4164 61.14L56.9764 67.22H69.0164Z" fill="white"/>
</g>
<defs>
<filter id="filter0_d_1565_893" x="-7.66675" y="-4" width="132" height="132" filterUnits="userSpaceOnUse" color-interpolation-filters="sRGB">
<feFlood flood-opacity="0" result="BackgroundImageFix"/>
<feColorMatrix in="SourceAlpha" type="matrix" values="0 0 0 0 0 0 0 0 0 0 0 0 0 0 0 0 0 0 127 0" result="hardAlpha"/>
<feOffset dy="4"/>
<feGaussianBlur stdDeviation="12"/>
<feComposite in2="hardAlpha" operator="out"/>
<feColorMatrix type="matrix" values="0 0 0 0 0.105882 0 0 0 0 0.192157 0 0 0 0 0.372549 0 0 0 0.15 0"/>
<feBlend mode="normal" in2="BackgroundImageFix" result="effect1_dropShadow_1565_893"/>
<feBlend mode="normal" in="SourceGraphic" in2="effect1_dropShadow_1565_893" result="shape"/>
</filter>
</defs>
</svg>
