<svg width="24" height="24" viewBox="0 0 24 24" fill="none" xmlns="http://www.w3.org/2000/svg">
<rect width="24" height="24" rx="4" fill="#1B315F"/>
<path d="M16.2 15.488V18H7.48V16.016L11.672 12.096C12.0773 11.712 12.3493 11.3867 12.488 11.12C12.6267 10.8427 12.696 10.5653 12.696 10.288C12.696 9.92533 12.5733 9.64267 12.328 9.44C12.0827 9.23733 11.7253 9.136 11.256 9.136C10.84 9.136 10.456 9.232 10.104 9.424C9.76267 9.60533 9.48 9.872 9.256 10.224L6.904 8.912C7.34133 8.18667 7.95467 7.616 8.744 7.2C9.53333 6.784 10.4667 6.576 11.544 6.576C12.3973 6.576 13.1493 6.71467 13.8 6.992C14.4613 7.26933 14.9733 7.66933 15.336 8.192C15.7093 8.704 15.896 9.30133 15.896 9.984C15.896 10.592 15.7627 11.168 15.496 11.712C15.24 12.2453 14.7387 12.8533 13.992 13.536L11.88 15.488H16.2Z" fill="white"/>
</svg>
